<mxfile host="app.diagrams.net" modified="2023-12-22T03:46:19.150Z" agent="Mozilla/5.0 (Windows NT 10.0; Win64; x64) AppleWebKit/537.36 (KHTML, like Gecko) Chrome/120.0.0.0 Safari/537.36" version="22.1.11" etag="PSMbRAnF_vRCb3pg5Nt3" type="github">
  <diagram name="第 1 页" id="IpUziSzZHSxBw8X9_z8K">
    <mxGraphModel>
      <root>
        <mxCell id="0" />
        <mxCell id="1" parent="0" />
      </root>
    </mxGraphModel>
  </diagram>
</mxfile>
